<svg width="1060" height="309" viewBox="0 0 1060 309" fill="none" xmlns="http://www.w3.org/2000/svg">
<path d="M11.4267 49L0.992839 12.0303H8.19543L14.8565 39.198H15.1995L22.3118 12.0303H28.8645L35.9949 39.216H36.3198L42.9809 12.0303H50.1835L39.7496 49H33.1428L25.7416 23.0598H25.4528L18.0336 49H11.4267ZM59.6877 49.5596C57.9306 49.5596 56.3481 49.2467 54.9401 48.6209C53.5441 47.9831 52.4369 47.0444 51.6186 45.8049C50.8123 44.5653 50.4091 43.037 50.4091 41.2198C50.4091 39.6553 50.6979 38.3616 51.2756 37.3387C51.8533 36.3157 52.6415 35.4974 53.6404 34.8836C54.6392 34.2699 55.7644 33.8066 57.016 33.4937C58.2796 33.1687 59.5854 32.9341 60.9332 32.7897C62.5579 32.6212 63.8756 32.4707 64.8865 32.3384C65.8974 32.194 66.6315 31.9773 67.0888 31.6885C67.5582 31.3876 67.7928 30.9243 67.7928 30.2985V30.1902C67.7928 28.8303 67.3897 27.7773 66.5834 27.0312C65.7771 26.2851 64.6157 25.912 63.0994 25.912C61.4988 25.912 60.2292 26.261 59.2905 26.959C58.3639 27.657 57.7381 28.4813 57.4131 29.4321L51.3117 28.5656C51.7931 26.8808 52.5873 25.4727 53.6945 24.3415C54.8017 23.1982 56.1556 22.3438 57.7561 21.7782C59.3567 21.2005 61.1258 20.9117 63.0633 20.9117C64.3991 20.9117 65.7289 21.0681 67.0527 21.381C68.3765 21.6939 69.586 22.2114 70.6811 22.9335C71.7762 23.6435 72.6547 24.6123 73.3166 25.8398C73.9905 27.0673 74.3275 28.6017 74.3275 30.4429V49H68.0455V45.1911H67.8289C67.4318 45.9613 66.8722 46.6834 66.1501 47.3573C65.4401 48.0192 64.5435 48.5547 63.4604 48.9639C62.3894 49.361 61.1318 49.5596 59.6877 49.5596ZM61.3845 44.7579C62.6963 44.7579 63.8335 44.4991 64.7963 43.9817C65.759 43.4521 66.4991 42.7541 67.0166 41.8877C67.5461 41.0212 67.8109 40.0765 67.8109 39.0536V35.7862C67.6063 35.9547 67.2573 36.1111 66.7639 36.2556C66.2825 36.4 65.741 36.5263 65.1392 36.6346C64.5375 36.743 63.9418 36.8392 63.3521 36.9235C62.7624 37.0077 62.251 37.0799 61.8177 37.1401C60.843 37.2725 59.9705 37.4891 59.2003 37.7899C58.4301 38.0908 57.8223 38.512 57.377 39.0536C56.9318 39.5831 56.7091 40.269 56.7091 41.1114C56.7091 42.3149 57.1484 43.2235 58.0269 43.8372C58.9054 44.451 60.0246 44.7579 61.3845 44.7579ZM80.8983 49V21.2727H87.433V49H80.8983ZM84.1837 17.3375C83.1487 17.3375 82.2582 16.9945 81.512 16.3085C80.7659 15.6105 80.3928 14.7741 80.3928 13.7994C80.3928 12.8125 80.7659 11.9761 81.512 11.2902C82.2582 10.5922 83.1487 10.2432 84.1837 10.2432C85.2307 10.2432 86.1212 10.5922 86.8553 11.2902C87.6015 11.9761 87.9745 12.8125 87.9745 13.7994C87.9745 14.7741 87.6015 15.6105 86.8553 16.3085C86.1212 16.9945 85.2307 17.3375 84.1837 17.3375ZM107.998 21.2727V26.3272H92.0587V21.2727H107.998ZM95.994 14.6297H102.529V40.6602C102.529 41.5387 102.661 42.2126 102.926 42.6819C103.203 43.1392 103.564 43.4521 104.009 43.6206C104.454 43.7891 104.948 43.8733 105.489 43.8733C105.898 43.8733 106.271 43.8433 106.608 43.7831C106.957 43.7229 107.222 43.6688 107.403 43.6206L108.504 48.7292C108.155 48.8496 107.655 48.9819 107.005 49.1264C106.368 49.2708 105.585 49.355 104.659 49.3791C103.022 49.4272 101.548 49.1805 100.236 48.639C98.9243 48.0854 97.8834 47.2309 97.1132 46.0756C96.355 44.9203 95.9819 43.4762 95.994 41.7433V14.6297ZM140.117 21.2727V26.3272H123.726V21.2727H140.117ZM127.823 49V18.6552C127.823 16.7899 128.209 15.2375 128.979 13.9979C129.761 12.7584 130.808 11.8317 132.12 11.218C133.431 10.6042 134.888 10.2973 136.488 10.2973C137.619 10.2973 138.624 10.3876 139.503 10.5681C140.381 10.7486 141.031 10.9111 141.452 11.0555L140.153 16.11C139.876 16.0257 139.527 15.9415 139.106 15.8572C138.685 15.761 138.215 15.7128 137.698 15.7128C136.482 15.7128 135.622 16.0077 135.116 16.5974C134.623 17.175 134.376 18.0054 134.376 19.0885V49H127.823ZM156.286 49.5415C153.579 49.5415 151.232 48.9458 149.246 47.7544C147.261 46.563 145.72 44.8963 144.625 42.7541C143.542 40.612 143 38.1089 143 35.2447C143 32.3805 143.542 29.8713 144.625 27.7171C145.72 25.563 147.261 23.8902 149.246 22.6988C151.232 21.5074 153.579 20.9117 156.286 20.9117C158.994 20.9117 161.341 21.5074 163.326 22.6988C165.312 23.8902 166.847 25.563 167.93 27.7171C169.025 29.8713 169.572 32.3805 169.572 35.2447C169.572 38.1089 169.025 40.612 167.93 42.7541C166.847 44.8963 165.312 46.563 163.326 47.7544C161.341 48.9458 158.994 49.5415 156.286 49.5415ZM156.322 44.3066C157.791 44.3066 159.018 43.9034 160.005 43.0971C160.992 42.2788 161.726 41.1837 162.207 39.8117C162.701 38.4398 162.947 36.9114 162.947 35.2266C162.947 33.5298 162.701 31.9954 162.207 30.6235C161.726 29.2395 160.992 28.1384 160.005 27.32C159.018 26.5017 157.791 26.0925 156.322 26.0925C154.818 26.0925 153.567 26.5017 152.568 27.32C151.581 28.1384 150.841 29.2395 150.347 30.6235C149.866 31.9954 149.625 33.5298 149.625 35.2266C149.625 36.9114 149.866 38.4398 150.347 39.8117C150.841 41.1837 151.581 42.2788 152.568 43.0971C153.567 43.9034 154.818 44.3066 156.322 44.3066ZM175.119 49V21.2727H181.455V25.8939H181.744C182.249 24.2934 183.116 23.0598 184.343 22.1934C185.583 21.3148 186.997 20.8756 188.585 20.8756C188.946 20.8756 189.349 20.8936 189.795 20.9297C190.252 20.9538 190.631 20.9959 190.932 21.0561V27.0673C190.655 26.971 190.216 26.8868 189.614 26.8146C189.024 26.7303 188.453 26.6882 187.899 26.6882C186.708 26.6882 185.637 26.9469 184.686 27.4644C183.747 27.9699 183.007 28.6739 182.466 29.5765C181.924 30.479 181.653 31.52 181.653 32.6994V49H175.119ZM225.555 37.3387V21.2727H232.09V49H225.753V44.0719H225.465C224.839 45.6243 223.81 46.894 222.378 47.8808C220.958 48.8676 219.207 49.361 217.125 49.361C215.308 49.361 213.701 48.9579 212.305 48.1516C210.921 47.3332 209.838 46.1478 209.056 44.5954C208.273 43.0309 207.882 41.1415 207.882 38.9272V21.2727H214.417V37.9163C214.417 39.6733 214.898 41.0693 215.861 42.1043C216.824 43.1392 218.088 43.6567 219.652 43.6567C220.615 43.6567 221.547 43.4221 222.45 42.9527C223.353 42.4834 224.093 41.7854 224.67 40.8587C225.26 39.92 225.555 38.7467 225.555 37.3387ZM260.724 28.6017L254.767 29.2515C254.598 28.6498 254.304 28.0842 253.882 27.5547C253.473 27.0252 252.92 26.598 252.222 26.273C251.524 25.9481 250.669 25.7856 249.658 25.7856C248.298 25.7856 247.155 26.0805 246.228 26.6702C245.314 27.2598 244.863 28.024 244.875 28.9627C244.863 29.769 245.157 30.4249 245.759 30.9303C246.373 31.4358 247.384 31.851 248.792 32.1759L253.521 33.1868C256.145 33.7524 258.094 34.649 259.37 35.8765C260.658 37.104 261.308 38.7106 261.32 40.6963C261.308 42.4412 260.796 43.9817 259.785 45.3175C258.786 46.6413 257.396 47.6762 255.615 48.4223C253.834 49.1685 251.788 49.5415 249.478 49.5415C246.084 49.5415 243.352 48.8315 241.282 47.4115C239.212 45.9794 237.979 43.9877 237.582 41.4364L243.954 40.8226C244.243 42.0742 244.857 43.0189 245.795 43.6567C246.734 44.2945 247.955 44.6135 249.46 44.6135C251.012 44.6135 252.258 44.2945 253.196 43.6567C254.147 43.0189 254.622 42.2306 254.622 41.292C254.622 40.4977 254.316 39.8418 253.702 39.3243C253.1 38.8069 252.161 38.4097 250.886 38.1329L246.156 37.1401C243.497 36.5865 241.529 35.6538 240.253 34.3421C238.978 33.0183 238.346 31.3455 238.358 29.3237C238.346 27.6149 238.809 26.1346 239.748 24.883C240.699 23.6194 242.016 22.6446 243.701 21.9587C245.398 21.2607 247.354 20.9117 249.568 20.9117C252.817 20.9117 255.375 21.6037 257.24 22.9876C259.117 24.3716 260.279 26.2429 260.724 28.6017ZM293.163 21.2727V26.3272H277.223V21.2727H293.163ZM281.158 14.6297H287.693V40.6602C287.693 41.5387 287.825 42.2126 288.09 42.6819C288.367 43.1392 288.728 43.4521 289.173 43.6206C289.619 43.7891 290.112 43.8733 290.653 43.8733C291.063 43.8733 291.436 43.8433 291.773 43.7831C292.122 43.7229 292.386 43.6688 292.567 43.6206L293.668 48.7292C293.319 48.8496 292.82 48.9819 292.17 49.1264C291.532 49.2708 290.75 49.355 289.823 49.3791C288.186 49.4272 286.712 49.1805 285.4 48.639C284.089 48.0854 283.048 47.2309 282.278 46.0756C281.519 44.9203 281.146 43.4762 281.158 41.7433V14.6297ZM310.425 49.5415C307.717 49.5415 305.37 48.9458 303.384 47.7544C301.399 46.563 299.858 44.8963 298.763 42.7541C297.68 40.612 297.139 38.1089 297.139 35.2447C297.139 32.3805 297.68 29.8713 298.763 27.7171C299.858 25.563 301.399 23.8902 303.384 22.6988C305.37 21.5074 307.717 20.9117 310.425 20.9117C313.132 20.9117 315.479 21.5074 317.465 22.6988C319.45 23.8902 320.985 25.563 322.068 27.7171C323.163 29.8713 323.711 32.3805 323.711 35.2447C323.711 38.1089 323.163 40.612 322.068 42.7541C320.985 44.8963 319.45 46.563 317.465 47.7544C315.479 48.9458 313.132 49.5415 310.425 49.5415ZM310.461 44.3066C311.929 44.3066 313.156 43.9034 314.143 43.0971C315.13 42.2788 315.864 41.1837 316.345 39.8117C316.839 38.4398 317.086 36.9114 317.086 35.2266C317.086 33.5298 316.839 31.9954 316.345 30.6235C315.864 29.2395 315.13 28.1384 314.143 27.32C313.156 26.5017 311.929 26.0925 310.461 26.0925C308.956 26.0925 307.705 26.5017 306.706 27.32C305.719 28.1384 304.979 29.2395 304.486 30.6235C304.004 31.9954 303.763 33.5298 303.763 35.2266C303.763 36.9114 304.004 38.4398 304.486 39.8117C304.979 41.1837 305.719 42.2788 306.706 43.0971C307.705 43.9034 308.956 44.3066 310.461 44.3066ZM348.401 12.0303V49H341.866V12.0303H348.401ZM367.215 49.5415C364.507 49.5415 362.16 48.9458 360.175 47.7544C358.189 46.563 356.649 44.8963 355.554 42.7541C354.47 40.612 353.929 38.1089 353.929 35.2447C353.929 32.3805 354.47 29.8713 355.554 27.7171C356.649 25.563 358.189 23.8902 360.175 22.6988C362.16 21.5074 364.507 20.9117 367.215 20.9117C369.923 20.9117 372.269 21.5074 374.255 22.6988C376.241 23.8902 377.775 25.563 378.858 27.7171C379.953 29.8713 380.501 32.3805 380.501 35.2447C380.501 38.1089 379.953 40.612 378.858 42.7541C377.775 44.8963 376.241 46.563 374.255 47.7544C372.269 48.9458 369.923 49.5415 367.215 49.5415ZM367.251 44.3066C368.719 44.3066 369.947 43.9034 370.934 43.0971C371.92 42.2788 372.654 41.1837 373.136 39.8117C373.629 38.4398 373.876 36.9114 373.876 35.2266C373.876 33.5298 373.629 31.9954 373.136 30.6235C372.654 29.2395 371.92 28.1384 370.934 27.32C369.947 26.5017 368.719 26.0925 367.251 26.0925C365.747 26.0925 364.495 26.5017 363.496 27.32C362.509 28.1384 361.769 29.2395 361.276 30.6235C360.795 31.9954 360.554 33.5298 360.554 35.2266C360.554 36.9114 360.795 38.4398 361.276 39.8117C361.769 41.1837 362.509 42.2788 363.496 43.0971C364.495 43.9034 365.747 44.3066 367.251 44.3066ZM394.026 49.5596C392.269 49.5596 390.687 49.2467 389.278 48.6209C387.882 47.9831 386.775 47.0444 385.957 45.8049C385.151 44.5653 384.748 43.037 384.748 41.2198C384.748 39.6553 385.036 38.3616 385.614 37.3387C386.192 36.3157 386.98 35.4974 387.979 34.8836C388.978 34.2699 390.103 33.8066 391.354 33.4937C392.618 33.1687 393.924 32.9341 395.272 32.7897C396.896 32.6212 398.214 32.4707 399.225 32.3384C400.236 32.194 400.97 31.9773 401.427 31.6885C401.897 31.3876 402.131 30.9243 402.131 30.2985V30.1902C402.131 28.8303 401.728 27.7773 400.922 27.0312C400.115 26.2851 398.954 25.912 397.438 25.912C395.837 25.912 394.568 26.261 393.629 26.959C392.702 27.657 392.076 28.4813 391.752 29.4321L385.65 28.5656C386.131 26.8808 386.926 25.4727 388.033 24.3415C389.14 23.1982 390.494 22.3438 392.095 21.7782C393.695 21.2005 395.464 20.9117 397.402 20.9117C398.738 20.9117 400.067 21.0681 401.391 21.381C402.715 21.6939 403.924 22.2114 405.019 22.9335C406.115 23.6435 406.993 24.6123 407.655 25.8398C408.329 27.0673 408.666 28.6017 408.666 30.4429V49H402.384V45.1911H402.167C401.77 45.9613 401.211 46.6834 400.489 47.3573C399.778 48.0192 398.882 48.5547 397.799 48.9639C396.728 49.361 395.47 49.5596 394.026 49.5596ZM395.723 44.7579C397.035 44.7579 398.172 44.4991 399.135 43.9817C400.097 43.4521 400.838 42.7541 401.355 41.8877C401.885 41.0212 402.149 40.0765 402.149 39.0536V35.7862C401.945 35.9547 401.596 36.1111 401.102 36.2556C400.621 36.4 400.079 36.5263 399.478 36.6346C398.876 36.743 398.28 36.8392 397.691 36.9235C397.101 37.0077 396.589 37.0799 396.156 37.1401C395.181 37.2725 394.309 37.4891 393.539 37.7899C392.768 38.0908 392.161 38.512 391.715 39.0536C391.27 39.5831 391.048 40.269 391.048 41.1114C391.048 42.3149 391.487 43.2235 392.365 43.8372C393.244 44.451 394.363 44.7579 395.723 44.7579ZM425.526 49.4874C423.348 49.4874 421.398 48.9278 419.677 47.8086C417.956 46.6894 416.597 45.0647 415.598 42.9347C414.599 40.8046 414.099 38.2172 414.099 35.1725C414.099 32.0917 414.605 29.4922 415.616 27.3742C416.639 25.2441 418.017 23.6375 419.75 22.5544C421.483 21.4593 423.414 20.9117 425.544 20.9117C427.169 20.9117 428.505 21.1885 429.552 21.7421C430.599 22.2836 431.429 22.9395 432.043 23.7097C432.656 24.4679 433.132 25.1839 433.469 25.8578H433.74V12.0303H440.292V49H433.866V44.6315H433.469C433.132 45.3054 432.644 46.0215 432.007 46.7797C431.369 47.5258 430.526 48.1636 429.479 48.6931C428.432 49.2226 427.115 49.4874 425.526 49.4874ZM427.349 44.1261C428.733 44.1261 429.913 43.753 430.887 43.0069C431.862 42.2487 432.602 41.1957 433.108 39.8478C433.613 38.5 433.866 36.9295 433.866 35.1364C433.866 33.3432 433.613 31.7848 433.108 30.461C432.614 29.1372 431.88 28.1083 430.905 27.3742C429.943 26.6401 428.757 26.273 427.349 26.273C425.893 26.273 424.678 26.6521 423.703 27.4103C422.728 28.1684 421.994 29.2154 421.501 30.5513C421.007 31.8871 420.76 33.4154 420.76 35.1364C420.76 36.8693 421.007 38.4157 421.501 39.7756C422.006 41.1235 422.746 42.1885 423.721 42.9708C424.708 43.741 425.917 44.1261 427.349 44.1261ZM460.154 49V12.0303H466.688V25.8578H466.959C467.296 25.1839 467.771 24.4679 468.385 23.7097C468.999 22.9395 469.829 22.2836 470.876 21.7421C471.923 21.1885 473.259 20.9117 474.884 20.9117C477.026 20.9117 478.957 21.4593 480.678 22.5544C482.411 23.6375 483.783 25.2441 484.794 27.3742C485.817 29.4922 486.328 32.0917 486.328 35.1725C486.328 38.2172 485.829 40.8046 484.83 42.9347C483.831 45.0647 482.471 46.6894 480.75 47.8086C479.03 48.9278 477.08 49.4874 474.902 49.4874C473.313 49.4874 471.995 49.2226 470.948 48.6931C469.901 48.1636 469.059 47.5258 468.421 46.7797C467.795 46.0215 467.308 45.3054 466.959 44.6315H466.58V49H460.154ZM466.562 35.1364C466.562 36.9295 466.815 38.5 467.32 39.8478C467.838 41.1957 468.578 42.2487 469.54 43.0069C470.515 43.753 471.695 44.1261 473.079 44.1261C474.523 44.1261 475.732 43.741 476.707 42.9708C477.682 42.1885 478.416 41.1235 478.909 39.7756C479.415 38.4157 479.667 36.8693 479.667 35.1364C479.667 33.4154 479.421 31.8871 478.927 30.5513C478.434 29.2154 477.7 28.1684 476.725 27.4103C475.75 26.6521 474.535 26.273 473.079 26.273C471.683 26.273 470.497 26.6401 469.522 27.3742C468.548 28.1083 467.807 29.1372 467.302 30.461C466.809 31.7848 466.562 33.3432 466.562 35.1364ZM504.159 49.5415C501.379 49.5415 498.978 48.9639 496.956 47.8086C494.947 46.6413 493.4 44.9925 492.317 42.8625C491.234 40.7203 490.692 38.1991 490.692 35.2988C490.692 32.4467 491.234 29.9435 492.317 27.7894C493.412 25.6232 494.941 23.9383 496.902 22.7349C498.864 21.5194 501.168 20.9117 503.816 20.9117C505.525 20.9117 507.137 21.1885 508.654 21.7421C510.182 22.2836 511.53 23.126 512.697 24.2693C513.877 25.4126 514.803 26.8687 515.477 28.6378C516.151 30.3948 516.488 32.4888 516.488 34.9197V36.9235H493.761V32.5189H510.224C510.212 31.2673 509.941 30.1541 509.412 29.1793C508.882 28.1925 508.142 27.4163 507.192 26.8507C506.253 26.2851 505.158 26.0022 503.906 26.0022C502.57 26.0022 501.397 26.3272 500.386 26.977C499.375 27.6149 498.587 28.4573 498.021 29.5043C497.468 30.5392 497.185 31.6765 497.173 32.916V36.761C497.173 38.3736 497.468 39.7576 498.057 40.9129C498.647 42.0561 499.472 42.9347 500.531 43.5484C501.59 44.1501 502.829 44.451 504.249 44.451C505.2 44.451 506.06 44.3186 506.831 44.0539C507.601 43.7771 508.269 43.3739 508.834 42.8444C509.4 42.3149 509.827 41.659 510.116 40.8768L516.217 41.5627C515.832 43.1753 515.098 44.5834 514.015 45.7868C512.944 46.9782 511.572 47.9049 509.899 48.5668C508.227 49.2166 506.313 49.5415 504.159 49.5415ZM536.061 21.2727V26.3272H519.67V21.2727H536.061ZM523.767 49V18.6552C523.767 16.7899 524.153 15.2375 524.923 13.9979C525.705 12.7584 526.752 11.8317 528.064 11.218C529.376 10.6042 530.832 10.2973 532.432 10.2973C533.563 10.2973 534.568 10.3876 535.447 10.5681C536.325 10.7486 536.975 10.9111 537.396 11.0555L536.097 16.11C535.82 16.0257 535.471 15.9415 535.05 15.8572C534.629 15.761 534.159 15.7128 533.642 15.7128C532.426 15.7128 531.566 16.0077 531.06 16.5974C530.567 17.175 530.32 18.0054 530.32 19.0885V49H523.767ZM552.23 49.5415C549.523 49.5415 547.176 48.9458 545.19 47.7544C543.205 46.563 541.664 44.8963 540.569 42.7541C539.486 40.612 538.944 38.1089 538.944 35.2447C538.944 32.3805 539.486 29.8713 540.569 27.7171C541.664 25.563 543.205 23.8902 545.19 22.6988C547.176 21.5074 549.523 20.9117 552.23 20.9117C554.938 20.9117 557.285 21.5074 559.271 22.6988C561.256 23.8902 562.791 25.563 563.874 27.7171C564.969 29.8713 565.516 32.3805 565.516 35.2447C565.516 38.1089 564.969 40.612 563.874 42.7541C562.791 44.8963 561.256 46.563 559.271 47.7544C557.285 48.9458 554.938 49.5415 552.23 49.5415ZM552.266 44.3066C553.735 44.3066 554.962 43.9034 555.949 43.0971C556.936 42.2788 557.67 41.1837 558.151 39.8117C558.645 38.4398 558.891 36.9114 558.891 35.2266C558.891 33.5298 558.645 31.9954 558.151 30.6235C557.67 29.2395 556.936 28.1384 555.949 27.32C554.962 26.5017 553.735 26.0925 552.266 26.0925C550.762 26.0925 549.511 26.5017 548.512 27.32C547.525 28.1384 546.785 29.2395 546.291 30.6235C545.81 31.9954 545.569 33.5298 545.569 35.2266C545.569 36.9114 545.81 38.4398 546.291 39.8117C546.785 41.1837 547.525 42.2788 548.512 43.0971C549.511 43.9034 550.762 44.3066 552.266 44.3066ZM571.063 49V21.2727H577.399V25.8939H577.688C578.193 24.2934 579.06 23.0598 580.287 22.1934C581.527 21.3148 582.941 20.8756 584.529 20.8756C584.89 20.8756 585.293 20.8936 585.739 20.9297C586.196 20.9538 586.575 20.9959 586.876 21.0561V27.0673C586.599 26.971 586.16 26.8868 585.558 26.8146C584.968 26.7303 584.397 26.6882 583.843 26.6882C582.652 26.6882 581.581 26.9469 580.63 27.4644C579.691 27.9699 578.951 28.6739 578.41 29.5765C577.868 30.479 577.597 31.52 577.597 32.6994V49H571.063ZM602.351 49.5415C599.571 49.5415 597.17 48.9639 595.148 47.8086C593.138 46.6413 591.592 44.9925 590.509 42.8625C589.426 40.7203 588.884 38.1991 588.884 35.2988C588.884 32.4467 589.426 29.9435 590.509 27.7894C591.604 25.6232 593.132 23.9383 595.094 22.7349C597.056 21.5194 599.36 20.9117 602.008 20.9117C603.717 20.9117 605.329 21.1885 606.846 21.7421C608.374 22.2836 609.722 23.126 610.889 24.2693C612.068 25.4126 612.995 26.8687 613.669 28.6378C614.343 30.3948 614.68 32.4888 614.68 34.9197V36.9235H591.953V32.5189H608.416C608.404 31.2673 608.133 30.1541 607.604 29.1793C607.074 28.1925 606.334 27.4163 605.383 26.8507C604.445 26.2851 603.35 26.0022 602.098 26.0022C600.762 26.0022 599.589 26.3272 598.578 26.977C597.567 27.6149 596.779 28.4573 596.213 29.5043C595.66 30.5392 595.377 31.6765 595.365 32.916V36.761C595.365 38.3736 595.66 39.7576 596.249 40.9129C596.839 42.0561 597.663 42.9347 598.722 43.5484C599.781 44.1501 601.021 44.451 602.441 44.451C603.392 44.451 604.252 44.3186 605.022 44.0539C605.792 43.7771 606.46 43.3739 607.026 42.8444C607.592 42.3149 608.019 41.659 608.308 40.8768L614.409 41.5627C614.024 43.1753 613.29 44.5834 612.207 45.7868C611.136 46.9782 609.764 47.9049 608.091 48.5668C606.418 49.2166 604.505 49.5415 602.351 49.5415ZM636.879 59.3977C635.988 59.3977 635.164 59.3255 634.406 59.1811C633.66 59.0487 633.064 58.8923 632.619 58.7118L634.135 53.6212C635.086 53.898 635.934 54.0304 636.68 54.0183C637.426 54.0063 638.082 53.7716 638.648 53.3143C639.226 52.8691 639.713 52.1229 640.11 51.0759L640.67 49.5777L630.615 21.2727H637.547L643.937 42.2126H644.226L650.634 21.2727H657.584L646.482 52.3576C645.965 53.8258 645.279 55.0834 644.424 56.1304C643.57 57.1894 642.523 57.9957 641.283 58.5493C640.056 59.1149 638.588 59.3977 636.879 59.3977ZM673.257 49.5415C670.55 49.5415 668.203 48.9458 666.217 47.7544C664.232 46.563 662.691 44.8963 661.596 42.7541C660.513 40.612 659.971 38.1089 659.971 35.2447C659.971 32.3805 660.513 29.8713 661.596 27.7171C662.691 25.563 664.232 23.8902 666.217 22.6988C668.203 21.5074 670.55 20.9117 673.257 20.9117C675.965 20.9117 678.312 21.5074 680.297 22.6988C682.283 23.8902 683.818 25.563 684.901 27.7171C685.996 29.8713 686.543 32.3805 686.543 35.2447C686.543 38.1089 685.996 40.612 684.901 42.7541C683.818 44.8963 682.283 46.563 680.297 47.7544C678.312 48.9458 675.965 49.5415 673.257 49.5415ZM673.293 44.3066C674.762 44.3066 675.989 43.9034 676.976 43.0971C677.963 42.2788 678.697 41.1837 679.178 39.8117C679.672 38.4398 679.918 36.9114 679.918 35.2266C679.918 33.5298 679.672 31.9954 679.178 30.6235C678.697 29.2395 677.963 28.1384 676.976 27.32C675.989 26.5017 674.762 26.0925 673.293 26.0925C671.789 26.0925 670.538 26.5017 669.539 27.32C668.552 28.1384 667.812 29.2395 667.318 30.6235C666.837 31.9954 666.596 33.5298 666.596 35.2266C666.596 36.9114 666.837 38.4398 667.318 39.8117C667.812 41.1837 668.552 42.2788 669.539 43.0971C670.538 43.9034 671.789 44.3066 673.293 44.3066ZM709.762 37.3387V21.2727H716.297V49H709.961V44.0719H709.672C709.046 45.6243 708.017 46.894 706.585 47.8808C705.165 48.8676 703.414 49.361 701.332 49.361C699.515 49.361 697.908 48.9579 696.512 48.1516C695.128 47.3332 694.045 46.1478 693.263 44.5954C692.481 43.0309 692.09 41.1415 692.09 38.9272V21.2727H698.624V37.9163C698.624 39.6733 699.106 41.0693 700.069 42.1043C701.031 43.1392 702.295 43.6567 703.859 43.6567C704.822 43.6567 705.755 43.4221 706.657 42.9527C707.56 42.4834 708.3 41.7854 708.878 40.8587C709.467 39.92 709.762 38.7467 709.762 37.3387ZM757.54 28.6017L751.583 29.2515C751.415 28.6498 751.12 28.0842 750.699 27.5547C750.29 27.0252 749.736 26.598 749.038 26.273C748.34 25.9481 747.486 25.7856 746.475 25.7856C745.115 25.7856 743.972 26.0805 743.045 26.6702C742.13 27.2598 741.679 28.024 741.691 28.9627C741.679 29.769 741.974 30.4249 742.576 30.9303C743.189 31.4358 744.2 31.851 745.608 32.1759L750.338 33.1868C752.961 33.7524 754.911 34.649 756.186 35.8765C757.474 37.104 758.124 38.7106 758.136 40.6963C758.124 42.4412 757.613 43.9817 756.602 45.3175C755.603 46.6413 754.213 47.6762 752.432 48.4223C750.651 49.1685 748.605 49.5415 746.294 49.5415C742.9 49.5415 740.169 48.8315 738.099 47.4115C736.029 45.9794 734.795 43.9877 734.398 41.4364L740.77 40.8226C741.059 42.0742 741.673 43.0189 742.612 43.6567C743.55 44.2945 744.772 44.6135 746.276 44.6135C747.829 44.6135 749.074 44.2945 750.013 43.6567C750.964 43.0189 751.439 42.2306 751.439 41.292C751.439 40.4977 751.132 39.8418 750.518 39.3243C749.917 38.8069 748.978 38.4097 747.702 38.1329L742.973 37.1401C740.313 36.5865 738.345 35.6538 737.07 34.3421C735.794 33.0183 735.162 31.3455 735.174 29.3237C735.162 27.6149 735.626 26.1346 736.564 24.883C737.515 23.6194 738.833 22.6446 740.518 21.9587C742.215 21.2607 744.17 20.9117 746.384 20.9117C749.634 20.9117 752.191 21.6037 754.056 22.9876C755.934 24.3716 757.095 26.2429 757.54 28.6017ZM777.37 21.2727V26.3272H761.43V21.2727H777.37ZM765.366 14.6297H771.9V40.6602C771.9 41.5387 772.033 42.2126 772.298 42.6819C772.574 43.1392 772.935 43.4521 773.381 43.6206C773.826 43.7891 774.319 43.8733 774.861 43.8733C775.27 43.8733 775.643 43.8433 775.98 43.7831C776.329 43.7229 776.594 43.6688 776.774 43.6206L777.876 48.7292C777.527 48.8496 777.027 48.9819 776.377 49.1264C775.739 49.2708 774.957 49.355 774.031 49.3791C772.394 49.4272 770.92 49.1805 769.608 48.639C768.296 48.0854 767.255 47.2309 766.485 46.0756C765.727 44.9203 765.354 43.4762 765.366 41.7433V14.6297ZM790.814 49.5596C789.057 49.5596 787.474 49.2467 786.066 48.6209C784.67 47.9831 783.563 47.0444 782.745 45.8049C781.939 44.5653 781.535 43.037 781.535 41.2198C781.535 39.6553 781.824 38.3616 782.402 37.3387C782.98 36.3157 783.768 35.4974 784.767 34.8836C785.766 34.2699 786.891 33.8066 788.142 33.4937C789.406 33.1687 790.712 32.9341 792.06 32.7897C793.684 32.6212 795.002 32.4707 796.013 32.3384C797.024 32.194 797.758 31.9773 798.215 31.6885C798.684 31.3876 798.919 30.9243 798.919 30.2985V30.1902C798.919 28.8303 798.516 27.7773 797.71 27.0312C796.903 26.2851 795.742 25.912 794.226 25.912C792.625 25.912 791.355 26.261 790.417 26.959C789.49 27.657 788.864 28.4813 788.539 29.4321L782.438 28.5656C782.919 26.8808 783.714 25.4727 784.821 24.3415C785.928 23.1982 787.282 22.3438 788.882 21.7782C790.483 21.2005 792.252 20.9117 794.19 20.9117C795.525 20.9117 796.855 21.0681 798.179 21.381C799.503 21.6939 800.712 22.2114 801.807 22.9335C802.903 23.6435 803.781 24.6123 804.443 25.8398C805.117 27.0673 805.454 28.6017 805.454 30.4429V49H799.172V45.1911H798.955C798.558 45.9613 797.998 46.6834 797.276 47.3573C796.566 48.0192 795.67 48.5547 794.587 48.9639C793.516 49.361 792.258 49.5596 790.814 49.5596ZM792.511 44.7579C793.823 44.7579 794.96 44.4991 795.923 43.9817C796.885 43.4521 797.625 42.7541 798.143 41.8877C798.672 41.0212 798.937 40.0765 798.937 39.0536V35.7862C798.733 35.9547 798.384 36.1111 797.89 36.2556C797.409 36.4 796.867 36.5263 796.266 36.6346C795.664 36.743 795.068 36.8392 794.478 36.9235C793.889 37.0077 793.377 37.0799 792.944 37.1401C791.969 37.2725 791.097 37.4891 790.327 37.7899C789.556 38.0908 788.949 38.512 788.503 39.0536C788.058 39.5831 787.835 40.269 787.835 41.1114C787.835 42.3149 788.275 43.2235 789.153 43.8372C790.032 44.451 791.151 44.7579 792.511 44.7579ZM812.025 49V21.2727H818.361V25.8939H818.65C819.155 24.2934 820.022 23.0598 821.249 22.1934C822.489 21.3148 823.903 20.8756 825.491 20.8756C825.852 20.8756 826.255 20.8936 826.701 20.9297C827.158 20.9538 827.537 20.9959 827.838 21.0561V27.0673C827.561 26.971 827.122 26.8868 826.52 26.8146C825.93 26.7303 825.359 26.6882 824.805 26.6882C823.614 26.6882 822.543 26.9469 821.592 27.4644C820.653 27.9699 819.913 28.6739 819.372 29.5765C818.83 30.479 818.559 31.52 818.559 32.6994V49H812.025ZM847.514 21.2727V26.3272H831.575V21.2727H847.514ZM835.51 14.6297H842.044V40.6602C842.044 41.5387 842.177 42.2126 842.442 42.6819C842.718 43.1392 843.079 43.4521 843.525 43.6206C843.97 43.7891 844.463 43.8733 845.005 43.8733C845.414 43.8733 845.787 43.8433 846.124 43.7831C846.473 43.7229 846.738 43.6688 846.918 43.6206L848.02 48.7292C847.671 48.8496 847.171 48.9819 846.521 49.1264C845.883 49.2708 845.101 49.355 844.175 49.3791C842.538 49.4272 841.064 49.1805 839.752 48.639C838.44 48.0854 837.399 47.2309 836.629 46.0756C835.871 44.9203 835.498 43.4762 835.51 41.7433V14.6297ZM872.123 12.0303V49H865.588V12.0303H872.123ZM890.937 49.5415C888.229 49.5415 885.883 48.9458 883.897 47.7544C881.911 46.563 880.371 44.8963 879.276 42.7541C878.193 40.612 877.651 38.1089 877.651 35.2447C877.651 32.3805 878.193 29.8713 879.276 27.7171C880.371 25.563 881.911 23.8902 883.897 22.6988C885.883 21.5074 888.229 20.9117 890.937 20.9117C893.645 20.9117 895.992 21.5074 897.977 22.6988C899.963 23.8902 901.497 25.563 902.581 27.7171C903.676 29.8713 904.223 32.3805 904.223 35.2447C904.223 38.1089 903.676 40.612 902.581 42.7541C901.497 44.8963 899.963 46.563 897.977 47.7544C895.992 48.9458 893.645 49.5415 890.937 49.5415ZM890.973 44.3066C892.442 44.3066 893.669 43.9034 894.656 43.0971C895.643 42.2788 896.377 41.1837 896.858 39.8117C897.352 38.4398 897.598 36.9114 897.598 35.2266C897.598 33.5298 897.352 31.9954 896.858 30.6235C896.377 29.2395 895.643 28.1384 894.656 27.32C893.669 26.5017 892.442 26.0925 890.973 26.0925C889.469 26.0925 888.217 26.5017 887.219 27.32C886.232 28.1384 885.492 29.2395 884.998 30.6235C884.517 31.9954 884.276 33.5298 884.276 35.2266C884.276 36.9114 884.517 38.4398 884.998 39.8117C885.492 41.1837 886.232 42.2788 887.219 43.0971C888.217 43.9034 889.469 44.3066 890.973 44.3066ZM917.748 49.5596C915.991 49.5596 914.409 49.2467 913.001 48.6209C911.605 47.9831 910.498 47.0444 909.679 45.8049C908.873 44.5653 908.47 43.037 908.47 41.2198C908.47 39.6553 908.759 38.3616 909.336 37.3387C909.914 36.3157 910.702 35.4974 911.701 34.8836C912.7 34.2699 913.825 33.8066 915.077 33.4937C916.34 33.1687 917.646 32.9341 918.994 32.7897C920.619 32.6212 921.936 32.4707 922.947 32.3384C923.958 32.194 924.692 31.9773 925.15 31.6885C925.619 31.3876 925.854 30.9243 925.854 30.2985V30.1902C925.854 28.8303 925.45 27.7773 924.644 27.0312C923.838 26.2851 922.676 25.912 921.16 25.912C919.56 25.912 918.29 26.261 917.351 26.959C916.425 27.657 915.799 28.4813 915.474 29.4321L909.372 28.5656C909.854 26.8808 910.648 25.4727 911.755 24.3415C912.862 23.1982 914.216 22.3438 915.817 21.7782C917.417 21.2005 919.187 20.9117 921.124 20.9117C922.46 20.9117 923.79 21.0681 925.113 21.381C926.437 21.6939 927.647 22.2114 928.742 22.9335C929.837 23.6435 930.715 24.6123 931.377 25.8398C932.051 27.0673 932.388 28.6017 932.388 30.4429V49H926.106V45.1911H925.89C925.493 45.9613 924.933 46.6834 924.211 47.3573C923.501 48.0192 922.604 48.5547 921.521 48.9639C920.45 49.361 919.193 49.5596 917.748 49.5596ZM919.445 44.7579C920.757 44.7579 921.894 44.4991 922.857 43.9817C923.82 43.4521 924.56 42.7541 925.077 41.8877C925.607 41.0212 925.872 40.0765 925.872 39.0536V35.7862C925.667 35.9547 925.318 36.1111 924.825 36.2556C924.343 36.4 923.802 36.5263 923.2 36.6346C922.598 36.743 922.003 36.8392 921.413 36.9235C920.823 37.0077 920.312 37.0799 919.878 37.1401C918.904 37.2725 918.031 37.4891 917.261 37.7899C916.491 38.0908 915.883 38.512 915.438 39.0536C914.993 39.5831 914.77 40.269 914.77 41.1114C914.77 42.3149 915.209 43.2235 916.088 43.8372C916.966 44.451 918.085 44.7579 919.445 44.7579ZM949.248 49.4874C947.07 49.4874 945.121 48.9278 943.4 47.8086C941.679 46.6894 940.319 45.0647 939.32 42.9347C938.321 40.8046 937.822 38.2172 937.822 35.1725C937.822 32.0917 938.327 29.4922 939.338 27.3742C940.361 25.2441 941.739 23.6375 943.472 22.5544C945.205 21.4593 947.136 20.9117 949.267 20.9117C950.891 20.9117 952.227 21.1885 953.274 21.7421C954.321 22.2836 955.151 22.9395 955.765 23.7097C956.379 24.4679 956.854 25.1839 957.191 25.8578H957.462V12.0303H964.015V49H957.588V44.6315H957.191C956.854 45.3054 956.367 46.0215 955.729 46.7797C955.091 47.5258 954.249 48.1636 953.202 48.6931C952.155 49.2226 950.837 49.4874 949.248 49.4874ZM951.072 44.1261C952.456 44.1261 953.635 43.753 954.61 43.0069C955.585 42.2487 956.325 41.1957 956.83 39.8478C957.336 38.5 957.588 36.9295 957.588 35.1364C957.588 33.3432 957.336 31.7848 956.83 30.461C956.337 29.1372 955.603 28.1083 954.628 27.3742C953.665 26.6401 952.48 26.273 951.072 26.273C949.616 26.273 948.4 26.6521 947.425 27.4103C946.45 28.1684 945.716 29.2154 945.223 30.5513C944.73 31.8871 944.483 33.4154 944.483 35.1364C944.483 36.8693 944.73 38.4157 945.223 39.7756C945.728 41.1235 946.469 42.1885 947.443 42.9708C948.43 43.741 949.64 44.1261 951.072 44.1261ZM970.978 49V21.2727H977.513V49H970.978ZM974.263 17.3375C973.229 17.3375 972.338 16.9945 971.592 16.3085C970.846 15.6105 970.473 14.7741 970.473 13.7994C970.473 12.8125 970.846 11.9761 971.592 11.2902C972.338 10.5922 973.229 10.2432 974.263 10.2432C975.31 10.2432 976.201 10.5922 976.935 11.2902C977.681 11.9761 978.054 12.8125 978.054 13.7994C978.054 14.7741 977.681 15.6105 976.935 16.3085C976.201 16.9945 975.31 17.3375 974.263 17.3375ZM990.767 32.7535V49H984.232V21.2727H990.478V25.9842H990.803C991.441 24.4318 992.458 23.1982 993.854 22.2836C995.262 21.369 997.001 20.9117 999.071 20.9117C1000.98 20.9117 1002.65 21.3209 1004.07 22.1392C1005.5 22.9575 1006.61 24.1429 1007.39 25.6954C1008.19 27.2478 1008.58 29.1312 1008.57 31.3455V49H1002.03V32.3564C1002.03 30.5031 1001.55 29.053 1000.59 28.006C999.637 26.959 998.319 26.4355 996.634 26.4355C995.491 26.4355 994.474 26.6882 993.583 27.1937C992.705 27.6871 992.013 28.4031 991.507 29.3418C991.014 30.2805 990.767 31.4177 990.767 32.7535ZM1027.27 59.9754C1024.92 59.9754 1022.91 59.6565 1021.22 59.0186C1019.54 58.3929 1018.18 57.5504 1017.16 56.4914C1016.14 55.4324 1015.43 54.259 1015.03 52.9714L1020.91 51.5453C1021.18 52.0868 1021.56 52.6224 1022.07 53.1519C1022.57 53.6934 1023.25 54.1387 1024.11 54.4877C1024.97 54.8487 1026.06 55.0292 1027.38 55.0292C1029.23 55.0292 1030.76 54.5779 1031.98 53.6754C1033.19 52.7848 1033.8 51.3166 1033.8 49.2708V44.0178H1033.48C1033.14 44.6917 1032.65 45.3837 1032 46.0937C1031.36 46.8037 1030.51 47.3994 1029.45 47.8808C1028.4 48.3622 1027.09 48.6029 1025.5 48.6029C1023.37 48.6029 1021.44 48.1034 1019.7 47.1046C1017.98 46.0937 1016.61 44.5894 1015.59 42.5917C1014.58 40.5819 1014.07 38.0667 1014.07 35.0461C1014.07 32.0014 1014.58 29.4321 1015.59 27.3381C1016.61 25.232 1017.99 23.6375 1019.72 22.5544C1021.45 21.4593 1023.39 20.9117 1025.52 20.9117C1027.14 20.9117 1028.48 21.1885 1029.52 21.7421C1030.58 22.2836 1031.43 22.9395 1032.05 23.7097C1032.68 24.4679 1033.15 25.1839 1033.48 25.8578H1033.84V21.2727H1040.28V49.4513C1040.28 51.8221 1039.72 53.7837 1038.59 55.3361C1037.45 56.8886 1035.91 58.0499 1033.95 58.8201C1031.99 59.5903 1029.76 59.9754 1027.27 59.9754ZM1027.32 43.4762C1028.71 43.4762 1029.88 43.1392 1030.86 42.4653C1031.83 41.7914 1032.57 40.8226 1033.08 39.559C1033.59 38.2954 1033.84 36.7791 1033.84 35.01C1033.84 33.265 1033.59 31.7366 1033.08 30.4249C1032.59 29.1131 1031.85 28.0962 1030.88 27.3742C1029.92 26.6401 1028.73 26.273 1027.32 26.273C1025.87 26.273 1024.65 26.6521 1023.68 27.4103C1022.7 28.1684 1021.97 29.2094 1021.47 30.5332C1020.98 31.845 1020.73 33.3372 1020.73 35.01C1020.73 36.7069 1020.98 38.1931 1021.47 39.4687C1021.98 40.7324 1022.72 41.7192 1023.69 42.4292C1024.68 43.1272 1025.89 43.4762 1027.32 43.4762ZM1054.98 12.0303L1054.38 38.1329H1048.57L1047.99 12.0303H1054.98ZM1051.47 49.3971C1050.38 49.3971 1049.44 49.012 1048.66 48.2418C1047.89 47.4716 1047.5 46.5329 1047.5 45.4258C1047.5 44.3427 1047.89 43.416 1048.66 42.6458C1049.44 41.8756 1050.38 41.4905 1051.47 41.4905C1052.55 41.4905 1053.47 41.8756 1054.25 42.6458C1055.05 43.416 1055.45 44.3427 1055.45 45.4258C1055.45 46.1599 1055.26 46.8278 1054.89 47.4295C1054.53 48.0312 1054.04 48.5126 1053.44 48.8736C1052.85 49.2226 1052.2 49.3971 1051.47 49.3971Z" fill="white"/>
<rect x="150.188" y="132" width="178.844" height="38.94" rx="5.51489" fill="#2F2F2F"/>
<rect x="150.188" y="178.02" width="178.844" height="38.94" rx="5.51489" fill="#2F2F2F"/>
<rect x="150.188" y="224.04" width="178.844" height="38.94" rx="5.51489" fill="#2F2F2F"/>
<rect x="150.188" y="270.06" width="178.844" height="38.94" rx="5.51489" fill="#3D3D3D"/>
<rect x="343.781" y="132" width="178.844" height="38.94" rx="5.51489" fill="#2F2F2F"/>
<rect x="343.781" y="178.02" width="178.844" height="38.94" rx="5.51489" fill="#2F2F2F"/>
<rect x="343.781" y="224.04" width="178.844" height="38.94" rx="5.51489" fill="#3D3D3D"/>
<rect x="343.781" y="270.06" width="178.844" height="38.94" rx="5.51489" fill="#3D3D3D"/>
<rect x="537.375" y="132" width="178.844" height="38.94" rx="5.51489" fill="#2F2F2F"/>
<rect x="537.375" y="178.02" width="178.844" height="38.94" rx="5.51489" fill="#3D3D3D"/>
<rect x="537.375" y="224.04" width="178.844" height="38.94" rx="5.51489" fill="#3D3D3D"/>
<rect x="537.375" y="270.06" width="178.844" height="38.94" rx="5.51489" fill="#3D3D3D"/>
<rect x="730.969" y="132" width="178.844" height="38.94" rx="5.51489" fill="#2F2F2F"/>
<rect x="730.969" y="178.02" width="178.844" height="38.94" rx="5.51489" fill="#2F2F2F"/>
<rect x="730.969" y="224.04" width="178.844" height="38.94" rx="5.51489" fill="#2F2F2F"/>
<rect x="730.969" y="270.06" width="178.844" height="38.94" rx="5.51489" fill="#3D3D3D"/>
</svg>
